<svg width="46" height="112" viewBox="0 0 46 112" fill="none" xmlns="http://www.w3.org/2000/svg">
<path d="M0 59.202V103.484V106.891C0 106.891 2.08333 112 22.9167 112C43.75 112 45.8333 106.891 45.8333 106.891V100.078V59.202H0Z" fill="#FFC107"/>
<path d="M0 8.51587V52.7981V56.2044C0 56.2044 2.08333 61.3139 22.9167 61.3139C43.75 61.3139 45.8333 56.2044 45.8333 56.2044V49.3918V8.51587H0Z" fill="#FFC107"/>
<path d="M22.9167 50.6862C19.9072 50.6862 16.9272 50.8183 14.1468 51.0751C11.3665 51.3319 8.84014 51.7082 6.71213 52.1827C4.58413 52.6572 2.8961 53.2204 1.74443 53.8403C0.592755 54.4602 0 55.1247 0 55.7956C0 56.4666 0.592755 57.131 1.74443 57.751C2.8961 58.3709 4.58413 58.9341 6.71213 59.4086C8.84014 59.8831 11.3665 60.2594 14.1468 60.5162C16.9272 60.773 19.9072 60.9051 22.9167 60.9051C25.9261 60.9051 28.9061 60.773 31.6865 60.5162C34.4669 60.2594 36.9932 59.8831 39.1212 59.4086C41.2492 58.9341 42.9372 58.3709 44.0889 57.751C45.2406 57.131 45.8333 56.4666 45.8333 55.7956C45.8333 55.1247 45.2406 54.4602 44.0889 53.8403C42.9372 53.2204 41.2492 52.6572 39.1212 52.1827C36.9932 51.7082 34.4669 51.3319 31.6865 51.0751C28.9061 50.8183 25.9261 50.6862 22.9167 50.6862V50.6862Z" fill="#FFC107"/>
<path d="M22.9167 0C19.9072 -9.99849e-09 16.9272 0.132161 14.1468 0.388937C11.3665 0.645713 8.84014 1.02207 6.71213 1.49653C4.58413 1.97099 2.8961 2.53426 1.74443 3.15417C0.592755 3.77408 0 4.4385 0 5.10949C0 5.78047 0.592755 6.44489 1.74443 7.0648C2.8961 7.68471 4.58413 8.24798 6.71213 8.72244C8.84014 9.1969 11.3665 9.57326 14.1468 9.83004C16.9272 10.0868 19.9072 10.219 22.9167 10.219C25.9261 10.219 28.9061 10.0868 31.6865 9.83004C34.4669 9.57326 36.9932 9.1969 39.1212 8.72244C41.2492 8.24798 42.9372 7.68471 44.0889 7.0648C45.2406 6.44489 45.8333 5.78047 45.8333 5.10949C45.8333 4.4385 45.2406 3.77408 44.0889 3.15417C42.9372 2.53426 41.2492 1.97099 39.1212 1.49653C36.9932 1.02207 34.4669 0.645713 31.6865 0.388937C28.9061 0.132161 25.9261 -9.99849e-09 22.9167 0V0Z" fill="#FFC107"/>
<path d="M0 66.0145C0 66.0145 2.08333 71.124 22.9167 71.124C43.75 71.124 45.8333 66.0145 45.8333 66.0145V71.124C45.8333 71.124 43.75 76.2335 22.9167 76.2335C2.08333 76.2335 0 71.124 0 71.124V66.0145ZM0 81.343C0 81.343 2.08333 86.4524 22.9167 86.4524C43.75 86.4524 45.8333 81.343 45.8333 81.343V76.2335C45.8333 76.2335 43.75 81.343 22.9167 81.343C2.08333 81.343 0 76.2335 0 76.2335V81.343ZM0 91.5619C0 91.5619 2.08333 96.6714 22.9167 96.6714C43.75 96.6714 45.8333 91.5619 45.8333 91.5619V86.4524C45.8333 86.4524 43.75 91.5619 22.9167 91.5619C2.08333 91.5619 0 86.4524 0 86.4524V91.5619ZM0 101.781C0 101.781 2.08333 106.89 22.9167 106.89C43.75 106.89 45.8333 101.781 45.8333 101.781V96.6714C45.8333 96.6714 43.75 101.781 22.9167 101.781C2.08333 101.781 0 96.6714 0 96.6714V101.781ZM0 60.905C0 60.905 2.08333 66.0145 22.9167 66.0145C43.75 66.0145 45.8333 60.905 45.8333 60.905V55.7955C45.8333 55.7955 43.75 60.905 22.9167 60.905C2.08333 60.905 0 55.7955 0 55.7955V60.905Z" fill="#FF9800"/>
<path d="M0 15.3285C0 15.3285 2.08333 20.438 22.9167 20.438C43.75 20.438 45.8333 15.3285 45.8333 15.3285V20.438C45.8333 20.438 43.75 25.5474 22.9167 25.5474C2.08333 25.5474 0 20.438 0 20.438V15.3285ZM0 30.6569C0 30.6569 2.08333 35.7664 22.9167 35.7664C43.75 35.7664 45.8333 30.6569 45.8333 30.6569V25.5474C45.8333 25.5474 43.75 30.6569 22.9167 30.6569C2.08333 30.6569 0 25.5474 0 25.5474V30.6569ZM0 40.8759C0 40.8759 2.08333 45.9854 22.9167 45.9854C43.75 45.9854 45.8333 40.8759 45.8333 40.8759V35.7664C45.8333 35.7664 43.75 40.8759 22.9167 40.8759C2.08333 40.8759 0 35.7664 0 35.7664V40.8759ZM0 51.0949C0 51.0949 2.08333 56.2044 22.9167 56.2044C43.75 56.2044 45.8333 51.0949 45.8333 51.0949V45.9854C45.8333 45.9854 43.75 51.0949 22.9167 51.0949C2.08333 51.0949 0 45.9854 0 45.9854V51.0949ZM0 10.219C0 10.219 2.08333 15.3285 22.9167 15.3285C43.75 15.3285 45.8333 10.219 45.8333 10.219V5.1095C45.8333 5.1095 43.75 10.219 22.9167 10.219C2.08333 10.219 0 5.1095 0 5.1095V10.219Z" fill="#FF9800"/>
<path d="M22.9167 96.6716C23.5958 96.6716 24.2104 96.6528 24.8437 96.6409C24.3917 94.4779 22.9708 92.8292 20.9562 91.5314C4.30417 91.2521 0.731247 87.5511 0.118747 86.6519L0.0625 89.8879C9.64583 90.4993 16.6687 92.463 16.6687 94.7964V96.4859C18.5437 96.6 20.5979 96.6716 22.9167 96.6716ZM16.6667 101.597V105.187V106.707C18.5437 106.819 20.5979 106.891 22.9167 106.891C23.6521 106.891 24.3125 106.87 25 106.856V105.187V101.747C24.3125 101.761 23.6521 101.781 22.9167 101.781C20.5979 101.781 18.5437 101.71 16.6667 101.597Z" fill="#FF9800"/>
</svg>
