<svg width="46" height="66" viewBox="0 0 46 66" fill="none" xmlns="http://www.w3.org/2000/svg">
<path d="M0 9.16675V56.8334V60.5C0 60.5 2.08333 66 22.9167 66C43.75 66 45.8333 60.5 45.8333 60.5V53.1667V9.16675H0Z" fill="#FFC107"/>
<path d="M22.9167 0C19.9072 -1.07627e-08 16.9272 0.142262 14.1468 0.418663C11.3665 0.695063 8.84014 1.10019 6.71213 1.61091C4.58413 2.12163 2.8961 2.72795 1.74443 3.39524C0.592755 4.06253 0 4.77772 0 5.49999C0 6.22226 0.592755 6.93746 1.74443 7.60475C2.8961 8.27204 4.58413 8.87836 6.71213 9.38908C8.84014 9.8998 11.3665 10.3049 14.1468 10.5813C16.9272 10.8577 19.9072 11 22.9167 11C25.9261 11 28.9061 10.8577 31.6865 10.5813C34.4669 10.3049 36.9932 9.8998 39.1212 9.38908C41.2492 8.87836 42.9372 8.27204 44.0889 7.60475C45.2406 6.93746 45.8333 6.22226 45.8333 5.49999C45.8333 4.77772 45.2406 4.06253 44.0889 3.39524C42.9372 2.72795 41.2492 2.12163 39.1212 1.61091C36.9932 1.10019 34.4669 0.695063 31.6865 0.418663C28.9061 0.142262 25.9261 -1.07627e-08 22.9167 0V0Z" fill="#FFC107"/>
<path d="M0 16.5C0 16.5 2.08333 22 22.9167 22C43.75 22 45.8333 16.5 45.8333 16.5V22C45.8333 22 43.75 27.5 22.9167 27.5C2.08333 27.5 0 22 0 22V16.5ZM0 33C0 33 2.08333 38.5 22.9167 38.5C43.75 38.5 45.8333 33 45.8333 33V27.5C45.8333 27.5 43.75 33 22.9167 33C2.08333 33 0 27.5 0 27.5V33ZM0 44C0 44 2.08333 49.5 22.9167 49.5C43.75 49.5 45.8333 44 45.8333 44V38.5C45.8333 38.5 43.75 44 22.9167 44C2.08333 44 0 38.5 0 38.5V44ZM0 54.9999C0 54.9999 2.08333 60.4999 22.9167 60.4999C43.75 60.4999 45.8333 54.9999 45.8333 54.9999V49.5C45.8333 49.5 43.75 54.9999 22.9167 54.9999C2.08333 54.9999 0 49.5 0 49.5V54.9999ZM0 11C0 11 2.08333 16.5 22.9167 16.5C43.75 16.5 45.8333 11 45.8333 11V5.5C45.8333 5.5 43.75 11 22.9167 11C2.08333 11 0 5.5 0 5.5V11Z" fill="#FF9800"/>
<path d="M22.9167 49.5001C23.5958 49.5001 24.2104 49.4799 24.8437 49.4671C24.3917 47.1388 22.9708 45.3641 20.9562 43.9671C4.30417 43.6664 0.731247 39.6826 0.118747 38.7146L0.0625 42.1979C9.64583 42.8561 16.6687 44.9699 16.6687 47.4816V49.3003C18.5437 49.4231 20.5979 49.5001 22.9167 49.5001ZM16.6667 54.8021V58.6667V60.3021C18.5437 60.4231 20.5979 60.5001 22.9167 60.5001C23.6521 60.5001 24.3125 60.4781 25 60.4634V58.6667V54.9634C24.3125 54.9781 23.6521 55.0001 22.9167 55.0001C20.5979 55.0001 18.5437 54.9231 16.6667 54.8021Z" fill="#FF9800"/>
</svg>
