<svg width="46" height="51" viewBox="0 0 46 51" fill="none" xmlns="http://www.w3.org/2000/svg">
<path d="M0 7.08337V43.9167V46.75C0 46.75 2.08333 51 22.9167 51C43.75 51 45.8333 46.75 45.8333 46.75V41.0833V7.08337H0Z" fill="#FFC107"/>
<path d="M22.9167 0C19.9072 -8.3166e-09 16.9272 0.10993 14.1468 0.323512C11.3665 0.537094 8.84014 0.850146 6.71213 1.2448C4.58413 1.63944 2.8961 2.10796 1.74443 2.62359C0.592755 3.13923 0 3.69188 0 4.25C0 4.80811 0.592755 5.36077 1.74443 5.8764C2.8961 6.39203 4.58413 6.86055 6.71213 7.2552C8.84014 7.64985 11.3665 7.9629 14.1468 8.17648C16.9272 8.39006 19.9072 8.49999 22.9167 8.49999C25.9261 8.49999 28.9061 8.39006 31.6865 8.17648C34.4669 7.9629 36.9932 7.64985 39.1212 7.2552C41.2492 6.86055 42.9372 6.39203 44.0889 5.8764C45.2406 5.36077 45.8333 4.80811 45.8333 4.25C45.8333 3.69188 45.2406 3.13923 44.0889 2.62359C42.9372 2.10796 41.2492 1.63944 39.1212 1.2448C36.9932 0.850146 34.4669 0.537094 31.6865 0.323512C28.9061 0.10993 25.9261 -8.3166e-09 22.9167 0V0Z" fill="#FFC107"/>
<path d="M0 12.75C0 12.75 2.08333 17 22.9167 17C43.75 17 45.8333 12.75 45.8333 12.75V17C45.8333 17 43.75 21.25 22.9167 21.25C2.08333 21.25 0 17 0 17V12.75ZM0 25.5C0 25.5 2.08333 29.75 22.9167 29.75C43.75 29.75 45.8333 25.5 45.8333 25.5V21.25C45.8333 21.25 43.75 25.5 22.9167 25.5C2.08333 25.5 0 21.25 0 21.25V25.5ZM0 34C0 34 2.08333 38.25 22.9167 38.25C43.75 38.25 45.8333 34 45.8333 34V29.75C45.8333 29.75 43.75 34 22.9167 34C2.08333 34 0 29.75 0 29.75V34ZM0 42.5C0 42.5 2.08333 46.75 22.9167 46.75C43.75 46.75 45.8333 42.5 45.8333 42.5V38.25C45.8333 38.25 43.75 42.5 22.9167 42.5C2.08333 42.5 0 38.25 0 38.25V42.5ZM0 8.5C0 8.5 2.08333 12.75 22.9167 12.75C43.75 12.75 45.8333 8.5 45.8333 8.5V4.25C45.8333 4.25 43.75 8.5 22.9167 8.5C2.08333 8.5 0 4.25 0 4.25V8.5Z" fill="#FF9800"/>
<path d="M22.9167 38.25C23.5958 38.25 24.2104 38.2344 24.8437 38.2245C24.3917 36.4253 22.9708 35.054 20.9562 33.9745C4.30417 33.7422 0.731247 30.6638 0.118747 29.9158L0.0625 32.6074C9.64583 33.116 16.6687 34.7494 16.6687 36.6903V38.0956C18.5437 38.1905 20.5979 38.25 22.9167 38.25ZM16.6667 42.347V45.3333V46.597C18.5437 46.6905 20.5979 46.75 22.9167 46.75C23.6521 46.75 24.3125 46.733 25 46.7217V45.3333V42.4717C24.3125 42.483 23.6521 42.5 22.9167 42.5C20.5979 42.5 18.5437 42.4405 16.6667 42.347Z" fill="#FF9800"/>
</svg>
