<svg width="46" height="238" viewBox="0 0 46 238" fill="none" xmlns="http://www.w3.org/2000/svg">
<path d="M0 179.445V228.556V232.333C0 232.333 2.08333 238 22.9167 238C43.75 238 45.8333 232.333 45.8333 232.333V224.778V179.445H0Z" fill="#FFC107"/>
<path d="M22.9167 170C19.9072 170 16.9272 170.147 14.1468 170.431C11.3665 170.716 8.84014 171.134 6.71213 171.66C4.58413 172.186 2.8961 172.811 1.74443 173.498C0.592755 174.186 0 174.923 0 175.667C0 176.411 0.592755 177.148 1.74443 177.835C2.8961 178.523 4.58413 179.147 6.71213 179.674C8.84014 180.2 11.3665 180.617 14.1468 180.902C16.9272 181.187 19.9072 181.333 22.9167 181.333C25.9261 181.333 28.9061 181.187 31.6865 180.902C34.4669 180.617 36.9932 180.2 39.1212 179.674C41.2492 179.147 42.9372 178.523 44.0889 177.835C45.2406 177.148 45.8333 176.411 45.8333 175.667C45.8333 174.923 45.2406 174.186 44.0889 173.498C42.9372 172.811 41.2492 172.186 39.1212 171.66C36.9932 171.134 34.4669 170.716 31.6865 170.431C28.9061 170.147 25.9261 170 22.9167 170Z" fill="#FFC107"/>
<path d="M0 187C0 187 2.08333 192.667 22.9167 192.667C43.75 192.667 45.8333 187 45.8333 187V192.667C45.8333 192.667 43.75 198.333 22.9167 198.333C2.08333 198.333 0 192.667 0 192.667V187ZM0 204C0 204 2.08333 209.667 22.9167 209.667C43.75 209.667 45.8333 204 45.8333 204V198.333C45.8333 198.333 43.75 204 22.9167 204C2.08333 204 0 198.333 0 198.333V204ZM0 215.333C0 215.333 2.08333 221 22.9167 221C43.75 221 45.8333 215.333 45.8333 215.333V209.667C45.8333 209.667 43.75 215.333 22.9167 215.333C2.08333 215.333 0 209.667 0 209.667V215.333ZM0 226.667C0 226.667 2.08333 232.333 22.9167 232.333C43.75 232.333 45.8333 226.667 45.8333 226.667V221C45.8333 221 43.75 226.667 22.9167 226.667C2.08333 226.667 0 221 0 221V226.667ZM0 181.333C0 181.333 2.08333 187 22.9167 187C43.75 187 45.8333 181.333 45.8333 181.333V175.667C45.8333 175.667 43.75 181.333 22.9167 181.333C2.08333 181.333 0 175.667 0 175.667V181.333Z" fill="#FF9800"/>
<path d="M22.9167 221C23.5958 221 24.2104 220.979 24.8437 220.966C24.3917 218.567 22.9708 216.739 20.9562 215.299C4.30416 214.99 0.731247 210.885 0.118747 209.888L0.0625 213.477C9.64583 214.155 16.6687 216.333 16.6687 218.92V220.794C18.5437 220.921 20.5979 221 22.9167 221ZM16.6667 226.463V230.444V232.129C18.5437 232.254 20.5979 232.333 22.9167 232.333C23.6521 232.333 24.3125 232.311 25 232.296V230.444V226.629C24.3125 226.644 23.6521 226.667 22.9167 226.667C20.5979 226.667 18.5437 226.587 16.6667 226.463Z" fill="#FF9800"/>
<path d="M0 122.445V171.556V175.333C0 175.333 2.08333 181 22.9167 181C43.75 181 45.8333 175.333 45.8333 175.333V167.778V122.445H0Z" fill="#FFC107"/>
<path d="M22.9167 113C19.9072 113 16.9272 113.147 14.1468 113.431C11.3665 113.716 8.84014 114.134 6.71213 114.66C4.58413 115.186 2.8961 115.811 1.74443 116.498C0.592755 117.186 0 117.923 0 118.667C0 119.411 0.592755 120.148 1.74443 120.835C2.8961 121.523 4.58413 122.147 6.71213 122.674C8.84014 123.2 11.3665 123.617 14.1468 123.902C16.9272 124.187 19.9072 124.333 22.9167 124.333C25.9261 124.333 28.9061 124.187 31.6865 123.902C34.4669 123.617 36.9932 123.2 39.1212 122.674C41.2492 122.147 42.9372 121.523 44.0889 120.835C45.2406 120.148 45.8333 119.411 45.8333 118.667C45.8333 117.923 45.2406 117.186 44.0889 116.498C42.9372 115.811 41.2492 115.186 39.1212 114.66C36.9932 114.134 34.4669 113.716 31.6865 113.431C28.9061 113.147 25.9261 113 22.9167 113Z" fill="#FFC107"/>
<path d="M0 130C0 130 2.08333 135.667 22.9167 135.667C43.75 135.667 45.8333 130 45.8333 130V135.667C45.8333 135.667 43.75 141.333 22.9167 141.333C2.08333 141.333 0 135.667 0 135.667V130ZM0 147C0 147 2.08333 152.667 22.9167 152.667C43.75 152.667 45.8333 147 45.8333 147V141.333C45.8333 141.333 43.75 147 22.9167 147C2.08333 147 0 141.333 0 141.333V147ZM0 158.333C0 158.333 2.08333 164 22.9167 164C43.75 164 45.8333 158.333 45.8333 158.333V152.667C45.8333 152.667 43.75 158.333 22.9167 158.333C2.08333 158.333 0 152.667 0 152.667V158.333ZM0 169.667C0 169.667 2.08333 175.333 22.9167 175.333C43.75 175.333 45.8333 169.667 45.8333 169.667V164C45.8333 164 43.75 169.667 22.9167 169.667C2.08333 169.667 0 164 0 164V169.667ZM0 124.333C0 124.333 2.08333 130 22.9167 130C43.75 130 45.8333 124.333 45.8333 124.333V118.667C45.8333 118.667 43.75 124.333 22.9167 124.333C2.08333 124.333 0 118.667 0 118.667V124.333Z" fill="#FF9800"/>
<path d="M22.9167 164C23.5958 164 24.2104 163.979 24.8437 163.966C24.3917 161.567 22.9708 159.739 20.9562 158.299C4.30416 157.99 0.731247 153.885 0.118747 152.888L0.0625 156.477C9.64583 157.155 16.6687 159.333 16.6687 161.92V163.794C18.5437 163.921 20.5979 164 22.9167 164ZM16.6667 169.463V173.444V175.129C18.5437 175.254 20.5979 175.333 22.9167 175.333C23.6521 175.333 24.3125 175.311 25 175.296V173.444V169.629C24.3125 169.644 23.6521 169.667 22.9167 169.667C20.5979 169.667 18.5437 169.587 16.6667 169.463Z" fill="#FF9800"/>
<path d="M0 66.4446V115.556V119.333C0 119.333 2.08333 125 22.9167 125C43.75 125 45.8333 119.333 45.8333 119.333V111.778V66.4446H0Z" fill="#FFC107"/>
<path d="M22.9167 57C19.9072 57 16.9272 57.1466 14.1468 57.4313C11.3665 57.7161 8.84014 58.1335 6.71213 58.6597C4.58413 59.1859 2.8961 59.8106 1.74443 60.4981C0.592755 61.1856 0 61.9225 0 62.6667C0 63.4108 0.592755 64.1477 1.74443 64.8352C2.8961 65.5227 4.58413 66.1474 6.71213 66.6736C8.84014 67.1998 11.3665 67.6172 14.1468 67.902C16.9272 68.1867 19.9072 68.3333 22.9167 68.3333C25.9261 68.3333 28.9061 68.1867 31.6865 67.902C34.4669 67.6172 36.9932 67.1998 39.1212 66.6736C41.2492 66.1474 42.9372 65.5227 44.0889 64.8352C45.2406 64.1477 45.8333 63.4108 45.8333 62.6667C45.8333 61.9225 45.2406 61.1856 44.0889 60.4981C42.9372 59.8106 41.2492 59.1859 39.1212 58.6597C36.9932 58.1335 34.4669 57.7161 31.6865 57.4313C28.9061 57.1466 25.9261 57 22.9167 57Z" fill="#FFC107"/>
<path d="M0 74.0001C0 74.0001 2.08333 79.6667 22.9167 79.6667C43.75 79.6667 45.8333 74.0001 45.8333 74.0001V79.6667C45.8333 79.6667 43.75 85.3334 22.9167 85.3334C2.08333 85.3334 0 79.6667 0 79.6667V74.0001ZM0 91C0 91 2.08333 96.6667 22.9167 96.6667C43.75 96.6667 45.8333 91 45.8333 91V85.3334C45.8333 85.3334 43.75 91 22.9167 91C2.08333 91 0 85.3334 0 85.3334V91ZM0 102.333C0 102.333 2.08333 108 22.9167 108C43.75 108 45.8333 102.333 45.8333 102.333V96.6667C45.8333 96.6667 43.75 102.333 22.9167 102.333C2.08333 102.333 0 96.6667 0 96.6667V102.333ZM0 113.667C0 113.667 2.08333 119.333 22.9167 119.333C43.75 119.333 45.8333 113.667 45.8333 113.667V108C45.8333 108 43.75 113.667 22.9167 113.667C2.08333 113.667 0 108 0 108V113.667ZM0 68.3334C0 68.3334 2.08333 74.0001 22.9167 74.0001C43.75 74.0001 45.8333 68.3334 45.8333 68.3334V62.6667C45.8333 62.6667 43.75 68.3334 22.9167 68.3334C2.08333 68.3334 0 62.6667 0 62.6667V68.3334Z" fill="#FF9800"/>
<path d="M22.9167 108C23.5958 108 24.2104 107.979 24.8437 107.966C24.3917 105.567 22.9708 103.739 20.9562 102.299C4.30416 101.99 0.731247 97.885 0.118747 96.8877L0.0625 100.477C9.64583 101.155 16.6687 103.333 16.6687 105.92V107.794C18.5437 107.921 20.5979 108 22.9167 108ZM16.6667 113.463V117.444V119.129C18.5437 119.254 20.5979 119.333 22.9167 119.333C23.6521 119.333 24.3125 119.311 25 119.296V117.444V113.629C24.3125 113.644 23.6521 113.667 22.9167 113.667C20.5979 113.667 18.5437 113.587 16.6667 113.463Z" fill="#FF9800"/>
<path d="M0 9.44458V58.5556V62.3334C0 62.3334 2.08333 68.0001 22.9167 68.0001C43.75 68.0001 45.8333 62.3334 45.8333 62.3334V54.7779V9.44458H0Z" fill="#FFC107"/>
<path d="M22.9167 0C19.9072 -1.10888e-08 16.9272 0.146573 14.1468 0.431349C11.3665 0.716126 8.84014 1.13353 6.71213 1.65973C4.58413 2.18592 2.8961 2.81061 1.74443 3.49812C0.592755 4.18563 0 4.9225 0 5.66666C0 6.41082 0.592755 7.14769 1.74443 7.8352C2.8961 8.52271 4.58413 9.1474 6.71213 9.6736C8.84014 10.1998 11.3665 10.6172 14.1468 10.902C16.9272 11.1867 19.9072 11.3333 22.9167 11.3333C25.9261 11.3333 28.9061 11.1867 31.6865 10.902C34.4669 10.6172 36.9932 10.1998 39.1212 9.6736C41.2492 9.1474 42.9372 8.52271 44.0889 7.8352C45.2406 7.14769 45.8333 6.41082 45.8333 5.66666C45.8333 4.9225 45.2406 4.18563 44.0889 3.49812C42.9372 2.81061 41.2492 2.18592 39.1212 1.65973C36.9932 1.13353 34.4669 0.716126 31.6865 0.431349C28.9061 0.146573 25.9261 -1.10888e-08 22.9167 0Z" fill="#FFC107"/>
<path d="M0 17.0001C0 17.0001 2.08333 22.6667 22.9167 22.6667C43.75 22.6667 45.8333 17.0001 45.8333 17.0001V22.6667C45.8333 22.6667 43.75 28.3334 22.9167 28.3334C2.08333 28.3334 0 22.6667 0 22.6667V17.0001ZM0 34C0 34 2.08333 39.6667 22.9167 39.6667C43.75 39.6667 45.8333 34 45.8333 34V28.3334C45.8333 28.3334 43.75 34 22.9167 34C2.08333 34 0 28.3334 0 28.3334V34ZM0 45.3334C0 45.3334 2.08333 51 22.9167 51C43.75 51 45.8333 45.3334 45.8333 45.3334V39.6667C45.8333 39.6667 43.75 45.3334 22.9167 45.3334C2.08333 45.3334 0 39.6667 0 39.6667V45.3334ZM0 56.6667C0 56.6667 2.08333 62.3334 22.9167 62.3334C43.75 62.3334 45.8333 56.6667 45.8333 56.6667V51C45.8333 51 43.75 56.6667 22.9167 56.6667C2.08333 56.6667 0 51 0 51V56.6667ZM0 11.3334C0 11.3334 2.08333 17.0001 22.9167 17.0001C43.75 17.0001 45.8333 11.3334 45.8333 11.3334V5.66675C45.8333 5.66675 43.75 11.3334 22.9167 11.3334C2.08333 11.3334 0 5.66675 0 5.66675V11.3334Z" fill="#FF9800"/>
<path d="M22.9167 51C23.5958 51 24.2104 50.9792 24.8437 50.966C24.3917 48.5671 22.9708 46.7387 20.9562 45.2994C4.30416 44.9896 0.731247 40.885 0.118747 39.8877L0.0625 43.4766C9.64583 44.1547 16.6687 46.3326 16.6687 48.9204V50.7941C18.5437 50.9207 20.5979 51 22.9167 51ZM16.6667 56.4627V60.4444V62.1293C18.5437 62.254 20.5979 62.3333 22.9167 62.3333C23.6521 62.3333 24.3125 62.3107 25 62.2956V60.4444V56.6289C24.3125 56.644 23.6521 56.6667 22.9167 56.6667C20.5979 56.6667 18.5437 56.5873 16.6667 56.4627Z" fill="#FF9800"/>
</svg>
