<svg width="46" height="257" viewBox="0 0 46 257" fill="none" xmlns="http://www.w3.org/2000/svg">
<path d="M0 193.77V246.801V250.881C0 250.881 2.08333 257 22.9167 257C43.75 257 45.8333 250.881 45.8333 250.881V242.722V193.77H0Z" fill="#FFC107"/>
<path d="M22.9167 183.571C19.9072 183.571 16.9272 183.73 14.1468 184.037C11.3665 184.345 8.84014 184.795 6.71213 185.364C4.58413 185.932 2.8961 186.606 1.74443 187.349C0.592755 188.091 0 188.887 0 189.69C0 190.494 0.592755 191.29 1.74443 192.032C2.8961 192.774 4.58413 193.449 6.71213 194.017C8.84014 194.585 11.3665 195.036 14.1468 195.344C16.9272 195.651 19.9072 195.809 22.9167 195.809C25.9261 195.809 28.9061 195.651 31.6865 195.344C34.4669 195.036 36.9932 194.585 39.1212 194.017C41.2492 193.449 42.9372 192.774 44.0889 192.032C45.2406 191.29 45.8333 190.494 45.8333 189.69C45.8333 188.887 45.2406 188.091 44.0889 187.349C42.9372 186.606 41.2492 185.932 39.1212 185.364C36.9932 184.795 34.4669 184.345 31.6865 184.037C28.9061 183.73 25.9261 183.571 22.9167 183.571Z" fill="#FFC107"/>
<path d="M0 201.929C0 201.929 2.08333 208.048 22.9167 208.048C43.75 208.048 45.8333 201.929 45.8333 201.929V208.048C45.8333 208.048 43.75 214.167 22.9167 214.167C2.08333 214.167 0 208.048 0 208.048V201.929ZM0 220.286C0 220.286 2.08333 226.405 22.9167 226.405C43.75 226.405 45.8333 220.286 45.8333 220.286V214.167C45.8333 214.167 43.75 220.286 22.9167 220.286C2.08333 220.286 0 214.167 0 214.167V220.286ZM0 232.524C0 232.524 2.08333 238.643 22.9167 238.643C43.75 238.643 45.8333 232.524 45.8333 232.524V226.405C45.8333 226.405 43.75 232.524 22.9167 232.524C2.08333 232.524 0 226.405 0 226.405V232.524ZM0 244.762C0 244.762 2.08333 250.881 22.9167 250.881C43.75 250.881 45.8333 244.762 45.8333 244.762V238.643C45.8333 238.643 43.75 244.762 22.9167 244.762C2.08333 244.762 0 238.643 0 238.643V244.762ZM0 195.809C0 195.809 2.08333 201.929 22.9167 201.929C43.75 201.929 45.8333 195.809 45.8333 195.809V189.69C45.8333 189.69 43.75 195.809 22.9167 195.809C2.08333 195.809 0 189.69 0 189.69V195.809Z" fill="#FF9800"/>
<path d="M22.9167 238.643C23.5958 238.643 24.2104 238.62 24.8437 238.606C24.3917 236.016 22.9708 234.041 20.9562 232.487C4.30416 232.152 0.731247 227.72 0.118747 226.643L0.0625 230.519C9.64583 231.251 16.6687 233.603 16.6687 236.397V238.42C18.5437 238.557 20.5979 238.643 22.9167 238.643ZM16.6667 244.542V248.841V250.661C18.5437 250.795 20.5979 250.881 22.9167 250.881C23.6521 250.881 24.3125 250.856 25 250.84V248.841V244.721C24.3125 244.737 23.6521 244.762 22.9167 244.762C20.5979 244.762 18.5437 244.676 16.6667 244.542Z" fill="#FF9800"/>
<path d="M0 132.219V185.251V189.331C0 189.331 2.08333 195.45 22.9167 195.45C43.75 195.45 45.8333 189.331 45.8333 189.331V181.172V132.219H0Z" fill="#FFC107"/>
<path d="M22.9167 122.021C19.9072 122.021 16.9272 122.179 14.1468 122.487C11.3665 122.794 8.84014 123.245 6.71213 123.813C4.58413 124.381 2.8961 125.056 1.74443 125.798C0.592755 126.541 0 127.336 0 128.14C0 128.944 0.592755 129.739 1.74443 130.482C2.8961 131.224 4.58413 131.899 6.71213 132.467C8.84014 133.035 11.3665 133.486 14.1468 133.793C16.9272 134.101 19.9072 134.259 22.9167 134.259C25.9261 134.259 28.9061 134.101 31.6865 133.793C34.4669 133.486 36.9932 133.035 39.1212 132.467C41.2492 131.899 42.9372 131.224 44.0889 130.482C45.2406 129.739 45.8333 128.944 45.8333 128.14C45.8333 127.336 45.2406 126.541 44.0889 125.798C42.9372 125.056 41.2492 124.381 39.1212 123.813C36.9932 123.245 34.4669 122.794 31.6865 122.487C28.9061 122.179 25.9261 122.021 22.9167 122.021Z" fill="#FFC107"/>
<path d="M0 140.378C0 140.378 2.08333 146.497 22.9167 146.497C43.75 146.497 45.8333 140.378 45.8333 140.378V146.497C45.8333 146.497 43.75 152.616 22.9167 152.616C2.08333 152.616 0 146.497 0 146.497V140.378ZM0 158.735C0 158.735 2.08333 164.854 22.9167 164.854C43.75 164.854 45.8333 158.735 45.8333 158.735V152.616C45.8333 152.616 43.75 158.735 22.9167 158.735C2.08333 158.735 0 152.616 0 152.616V158.735ZM0 170.973C0 170.973 2.08333 177.092 22.9167 177.092C43.75 177.092 45.8333 170.973 45.8333 170.973V164.854C45.8333 164.854 43.75 170.973 22.9167 170.973C2.08333 170.973 0 164.854 0 164.854V170.973ZM0 183.211C0 183.211 2.08333 189.331 22.9167 189.331C43.75 189.331 45.8333 183.211 45.8333 183.211V177.092C45.8333 177.092 43.75 183.211 22.9167 183.211C2.08333 183.211 0 177.092 0 177.092V183.211ZM0 134.259C0 134.259 2.08333 140.378 22.9167 140.378C43.75 140.378 45.8333 134.259 45.8333 134.259V128.14C45.8333 128.14 43.75 134.259 22.9167 134.259C2.08333 134.259 0 128.14 0 128.14V134.259Z" fill="#FF9800"/>
<path d="M22.9167 177.092C23.5958 177.092 24.2104 177.07 24.8437 177.056C24.3917 174.465 22.9708 172.491 20.9562 170.937C4.30416 170.602 0.731247 166.17 0.118747 165.093L0.0625 168.968C9.64583 169.701 16.6687 172.052 16.6687 174.847V176.87C18.5437 177.007 20.5979 177.092 22.9167 177.092ZM16.6667 182.991V187.291V189.11C18.5437 189.245 20.5979 189.331 22.9167 189.331C23.6521 189.331 24.3125 189.306 25 189.29V187.291V183.171C24.3125 183.187 23.6521 183.211 22.9167 183.211C20.5979 183.211 18.5437 183.126 16.6667 182.991Z" fill="#FF9800"/>
<path d="M0 71.7488V124.78V128.86C0 128.86 2.08333 134.979 22.9167 134.979C43.75 134.979 45.8333 128.86 45.8333 128.86V120.701V71.7488H0Z" fill="#FFC107"/>
<path d="M22.9167 61.5503C19.9072 61.5503 16.9272 61.7086 14.1468 62.0161C11.3665 62.3236 8.84014 62.7743 6.71213 63.3425C4.58413 63.9107 2.8961 64.5853 1.74443 65.3277C0.592755 66.0701 0 66.8658 0 67.6693C0 68.4729 0.592755 69.2686 1.74443 70.011C2.8961 70.7534 4.58413 71.4279 6.71213 71.9962C8.84014 72.5644 11.3665 73.0151 14.1468 73.3226C16.9272 73.6301 19.9072 73.7884 22.9167 73.7884C25.9261 73.7884 28.9061 73.6301 31.6865 73.3226C34.4669 73.0151 36.9932 72.5644 39.1212 71.9962C41.2492 71.4279 42.9372 70.7534 44.0889 70.011C45.2406 69.2686 45.8333 68.4729 45.8333 67.6693C45.8333 66.8658 45.2406 66.0701 44.0889 65.3277C42.9372 64.5853 41.2492 63.9107 39.1212 63.3425C36.9932 62.7743 34.4669 62.3236 31.6865 62.0161C28.9061 61.7086 25.9261 61.5503 22.9167 61.5503Z" fill="#FFC107"/>
<path d="M0 79.9075C0 79.9075 2.08333 86.0266 22.9167 86.0266C43.75 86.0266 45.8333 79.9075 45.8333 79.9075V86.0266C45.8333 86.0266 43.75 92.1456 22.9167 92.1456C2.08333 92.1456 0 86.0266 0 86.0266V79.9075ZM0 98.2646C0 98.2646 2.08333 104.384 22.9167 104.384C43.75 104.384 45.8333 98.2646 45.8333 98.2646V92.1456C45.8333 92.1456 43.75 98.2646 22.9167 98.2646C2.08333 98.2646 0 92.1456 0 92.1456V98.2646ZM0 110.503C0 110.503 2.08333 116.622 22.9167 116.622C43.75 116.622 45.8333 110.503 45.8333 110.503V104.384C45.8333 104.384 43.75 110.503 22.9167 110.503C2.08333 110.503 0 104.384 0 104.384V110.503ZM0 122.741C0 122.741 2.08333 128.86 22.9167 128.86C43.75 128.86 45.8333 122.741 45.8333 122.741V116.622C45.8333 116.622 43.75 122.741 22.9167 122.741C2.08333 122.741 0 116.622 0 116.622V122.741ZM0 73.7885C0 73.7885 2.08333 79.9075 22.9167 79.9075C43.75 79.9075 45.8333 73.7885 45.8333 73.7885V67.6694C45.8333 67.6694 43.75 73.7885 22.9167 73.7885C2.08333 73.7885 0 67.6694 0 67.6694V73.7885Z" fill="#FF9800"/>
<path d="M22.9167 116.622C23.5958 116.622 24.2104 116.599 24.8437 116.585C24.3917 113.995 22.9708 112.02 20.9562 110.466C4.30416 110.131 0.731247 105.699 0.118747 104.622L0.0625 108.498C9.64583 109.23 16.6687 111.582 16.6687 114.376V116.399C18.5437 116.536 20.5979 116.622 22.9167 116.622ZM16.6667 122.521V126.82V128.64C18.5437 128.774 20.5979 128.86 22.9167 128.86C23.6521 128.86 24.3125 128.835 25 128.819V126.82V122.7C24.3125 122.716 23.6521 122.741 22.9167 122.741C20.5979 122.741 18.5437 122.655 16.6667 122.521Z" fill="#FF9800"/>
<path d="M0 10.1985V63.2302V67.3095C0 67.3095 2.08333 73.4286 22.9167 73.4286C43.75 73.4286 45.8333 67.3095 45.8333 67.3095V59.1508V10.1985H0Z" fill="#FFC107"/>
<path d="M22.9167 0C19.9072 -1.1974e-08 16.9272 0.158274 14.1468 0.465785C11.3665 0.773295 8.84014 1.22402 6.71213 1.79223C4.58413 2.36043 2.8961 3.03499 1.74443 3.77739C0.592755 4.51978 0 5.31548 0 6.11904C0 6.9226 0.592755 7.7183 1.74443 8.4607C2.8961 9.20309 4.58413 9.87765 6.71213 10.4459C8.84014 11.0141 11.3665 11.4648 14.1468 11.7723C16.9272 12.0798 19.9072 12.2381 22.9167 12.2381C25.9261 12.2381 28.9061 12.0798 31.6865 11.7723C34.4669 11.4648 36.9932 11.0141 39.1212 10.4459C41.2492 9.87765 42.9372 9.20309 44.0889 8.4607C45.2406 7.7183 45.8333 6.9226 45.8333 6.11904C45.8333 5.31548 45.2406 4.51978 44.0889 3.77739C42.9372 3.03499 41.2492 2.36043 39.1212 1.79223C36.9932 1.22402 34.4669 0.773295 31.6865 0.465785C28.9061 0.158274 25.9261 -1.1974e-08 22.9167 0Z" fill="#FFC107"/>
<path d="M0 18.3572C0 18.3572 2.08333 24.4763 22.9167 24.4763C43.75 24.4763 45.8333 18.3572 45.8333 18.3572V24.4763C45.8333 24.4763 43.75 30.5953 22.9167 30.5953C2.08333 30.5953 0 24.4763 0 24.4763V18.3572ZM0 36.7143C0 36.7143 2.08333 42.8334 22.9167 42.8334C43.75 42.8334 45.8333 36.7143 45.8333 36.7143V30.5953C45.8333 30.5953 43.75 36.7143 22.9167 36.7143C2.08333 36.7143 0 30.5953 0 30.5953V36.7143ZM0 48.9524C0 48.9524 2.08333 55.0715 22.9167 55.0715C43.75 55.0715 45.8333 48.9524 45.8333 48.9524V42.8334C45.8333 42.8334 43.75 48.9524 22.9167 48.9524C2.08333 48.9524 0 42.8334 0 42.8334V48.9524ZM0 61.1905C0 61.1905 2.08333 67.3095 22.9167 67.3095C43.75 67.3095 45.8333 61.1905 45.8333 61.1905V55.0715C45.8333 55.0715 43.75 61.1905 22.9167 61.1905C2.08333 61.1905 0 55.0715 0 55.0715V61.1905ZM0 12.2382C0 12.2382 2.08333 18.3572 22.9167 18.3572C43.75 18.3572 45.8333 12.2382 45.8333 12.2382V6.11914C45.8333 6.11914 43.75 12.2382 22.9167 12.2382C2.08333 12.2382 0 6.11914 0 6.11914V12.2382Z" fill="#FF9800"/>
<path d="M22.9167 55.0715C23.5958 55.0715 24.2104 55.049 24.8437 55.0347C24.3917 52.4444 22.9708 50.4699 20.9562 48.9157C4.30416 48.5812 0.731247 44.149 0.118747 43.072L0.0625 46.9474C9.64583 47.6797 16.6687 50.0314 16.6687 52.8258V54.8491C18.5437 54.9858 20.5979 55.0715 22.9167 55.0715ZM16.6667 60.9702V65.2699V67.0893C18.5437 67.2239 20.5979 67.3095 22.9167 67.3095C23.6521 67.3095 24.3125 67.2851 25 67.2687V65.2699V61.1497C24.3125 61.166 23.6521 61.1905 22.9167 61.1905C20.5979 61.1905 18.5437 61.1048 16.6667 60.9702Z" fill="#FF9800"/>
</svg>
