<svg width="46" height="46" viewBox="0 0 46 46" fill="none" xmlns="http://www.w3.org/2000/svg">
<path d="M17.1882 0.460363C16.9103 0.482824 16.6407 0.586706 16.4105 0.769201C15.9529 1.12858 15.7592 1.71818 15.9136 2.27408C16.9412 5.99979 16.9299 8.57718 16.4414 11.8958C15.3942 11.1405 14.3553 10.6632 13.6815 10.4021C13.2604 10.2393 12.7775 10.287 12.3956 10.5341C12.011 10.784 11.7667 11.2023 11.7415 11.6571C11.5449 15.0684 10.2422 17.1741 8.86646 19.4062C7.3335 21.8853 5.75 24.4486 5.75 28.8061C5.75 33.1214 7.45984 37.1475 10.5651 40.146C13.5299 43.007 17.3932 44.5624 21.5007 44.5624C21.6945 44.5624 21.8854 44.5596 22.0791 44.5512C30.4514 44.2564 37.2627 37.0296 37.2627 28.4467V28.0536C37.2627 23.7692 36.2856 19.6645 34.3596 15.8489C34.0255 15.1891 33.6605 14.5378 33.2759 13.9117C32.9418 13.367 32.3044 13.1143 31.6868 13.2799C31.0663 13.4456 30.6367 13.9903 30.6199 14.6304C30.5806 16.0707 30.3167 17.4942 29.8843 18.7688C29.5305 11.4297 25.2461 4.63529 18.0024 0.634436C17.7498 0.494055 17.4662 0.437902 17.1882 0.460363ZM17.3062 1.89225C25.058 6.17386 29.1936 13.8527 28.3597 21.7983C28.3176 21.9162 28.3008 22.0397 28.3232 22.1632C28.1801 23.3031 27.9386 24.4486 27.5876 25.5857C27.4725 25.9676 27.6831 26.3691 28.0649 26.4842C28.1351 26.5066 28.2053 26.5179 28.2755 26.5179C28.5815 26.5179 28.8651 26.3185 28.9634 26.0097C29.348 24.7519 29.6119 23.4856 29.7635 22.2278C31.1224 20.2906 31.9788 17.497 32.0518 14.6641C32.4167 15.2565 32.7593 15.8742 33.0737 16.4975C34.8987 20.1081 35.8252 23.9966 35.8252 28.0536V28.4467C35.8252 36.2631 29.6372 42.8442 22.0314 43.1137C18.0951 43.2597 14.3862 41.8334 11.5646 39.11C8.74292 36.3866 7.1875 32.7283 7.1875 28.8061C7.1875 24.8586 8.59692 22.576 10.0878 20.1614C11.5 17.876 12.9572 15.5148 13.1621 11.7442C14.9562 12.4348 18.0389 14.1222 18.5415 17.6289C18.5948 18.022 18.9542 18.2943 19.3529 18.2382C19.746 18.182 20.0183 17.8199 19.965 17.4268C19.6926 15.526 18.7942 14.0801 17.7245 12.9936C18.3646 9.11344 18.4797 6.16825 17.3062 1.89225ZM20.8438 6.13175C20.6613 6.12052 20.4731 6.18229 20.3271 6.31705C20.0323 6.58097 20.0099 7.0358 20.2766 7.3306C20.6472 7.74051 21.0038 8.16727 21.3351 8.59403C21.4755 8.77653 21.6888 8.87198 21.9022 8.87198C22.0566 8.87198 22.2111 8.82425 22.3402 8.72599C22.6575 8.48173 22.7136 8.0297 22.4722 7.71525C22.1184 7.2576 21.7394 6.80558 21.3407 6.36759C21.2087 6.21879 21.0291 6.14017 20.8438 6.13175ZM23.5475 10.0484C23.452 10.0568 23.3622 10.0849 23.2751 10.1326C22.9298 10.3263 22.8035 10.7671 22.9972 11.1125C24.1174 13.1199 24.8643 15.2705 25.2236 17.5082C25.277 17.8592 25.583 18.1119 25.9312 18.1119C25.9677 18.1119 26.0042 18.109 26.0435 18.1034C26.4365 18.0389 26.7032 17.6711 26.6387 17.2808C26.2568 14.8747 25.4539 12.564 24.2522 10.4106C24.1062 10.1523 23.8254 10.0175 23.5475 10.0484ZM12.9572 31.594C12.8645 31.5968 12.769 31.6165 12.6792 31.6586L11.3652 32.2426C11.0031 32.4026 10.8402 32.8266 11.0031 33.1888C11.121 33.4583 11.3821 33.6155 11.6572 33.6155C11.7555 33.6155 11.8538 33.5959 11.9492 33.5537L13.2632 32.9698C13.6254 32.8069 13.7882 32.383 13.6254 32.0208C13.5046 31.7485 13.2379 31.5884 12.9572 31.594ZM30.0555 31.594C29.7776 31.5884 29.5081 31.7485 29.3873 32.0208C29.2245 32.383 29.3873 32.8097 29.7495 32.9698L31.0635 33.5537C31.1589 33.5959 31.2572 33.6155 31.3555 33.6155C31.6306 33.6155 31.8945 33.4583 32.0125 33.1888C32.1753 32.8266 32.0096 32.4026 31.6475 32.2426L30.3335 31.6586C30.2437 31.6165 30.151 31.5968 30.0555 31.594ZM15.0039 34.514C14.8186 34.5196 14.6361 34.5926 14.4985 34.7358L13.499 35.769C13.2239 36.0553 13.2323 36.5102 13.5187 36.7853C13.6591 36.9201 13.8359 36.9875 14.0156 36.9875C14.2065 36.9875 14.3947 36.9145 14.535 36.7685L15.5317 35.7353C15.8097 35.4489 15.8013 34.9941 15.5149 34.7161C15.3717 34.5785 15.1892 34.5111 15.0039 34.514ZM28.0088 34.5168C27.8263 34.514 27.641 34.5785 27.5006 34.7161C27.2142 34.9941 27.2058 35.4489 27.481 35.7353L28.4805 36.7685C28.6208 36.9117 28.809 36.9875 28.9971 36.9875C29.1768 36.9875 29.3564 36.9201 29.494 36.7853C29.7804 36.5102 29.7888 36.0553 29.5137 35.769L28.5142 34.7358C28.3766 34.5926 28.1941 34.5196 28.0088 34.5168ZM17.994 36.4568C17.7161 36.4624 17.4521 36.6309 17.3398 36.906L16.8008 38.2397C16.6548 38.6075 16.8317 39.0286 17.1995 39.1746C17.2865 39.2111 17.3792 39.2279 17.469 39.2279C17.7526 39.2279 18.0221 39.0567 18.1344 38.7787L18.6735 37.4451C18.8223 37.0773 18.6426 36.659 18.2748 36.5102C18.1849 36.4737 18.0895 36.4568 17.994 36.4568ZM25.0187 36.4568C24.926 36.4568 24.8306 36.4737 24.7379 36.5102C24.3701 36.659 24.1932 37.0773 24.3392 37.4451L24.8783 38.7787C24.9934 39.0595 25.2629 39.2279 25.5465 39.2279C25.6364 39.2279 25.729 39.2111 25.816 39.1746C26.1838 39.0258 26.3607 38.6075 26.2119 38.2397L25.6729 36.906C25.5605 36.6309 25.2994 36.4624 25.0187 36.4568ZM21.5063 37.1391C21.1105 37.1391 20.7876 37.4591 20.7876 37.8578V39.2953C20.7876 39.6912 21.1105 40.0141 21.5063 40.0141C21.905 40.0141 22.2251 39.6912 22.2251 39.2953V37.8578C22.2251 37.4591 21.905 37.1391 21.5063 37.1391Z" fill="white"/>
</svg>
