<svg width="46" height="46" viewBox="0 0 46 46" fill="none" xmlns="http://www.w3.org/2000/svg">
<path d="M6.46875 4.3125C5.27994 4.3125 4.3125 5.27994 4.3125 6.46875V39.5312C4.3125 40.7201 5.27994 41.6875 6.46875 41.6875H39.5312C40.7201 41.6875 41.6875 40.7201 41.6875 39.5312V6.46875C41.6875 5.27994 40.7201 4.3125 39.5312 4.3125H6.46875ZM6.46875 5.75H39.5312C39.928 5.75 40.25 6.072 40.25 6.46875V39.5312C40.25 39.928 39.928 40.25 39.5312 40.25H6.46875C6.072 40.25 5.75 39.928 5.75 39.5312V6.46875C5.75 6.072 6.072 5.75 6.46875 5.75ZM13.6562 10.0625C13.2588 10.0625 12.9375 10.3838 12.9375 10.7812C12.9375 12.1929 12.3519 12.8768 11.6727 13.6689C10.918 14.5494 10.0625 15.548 10.0625 17.4915C10.0625 19.4342 10.918 20.4322 11.6727 21.3126C12.3512 22.1047 12.9375 22.79 12.9375 24.2017C12.9375 25.6126 12.3512 26.2951 11.6727 27.0865C10.9173 27.967 10.0625 28.9642 10.0625 30.9062C10.0625 31.3037 10.3838 31.625 10.7812 31.625C11.1787 31.625 11.5 31.3037 11.5 30.9062C11.5 29.4961 12.0863 28.8128 12.7648 28.0214C13.5202 27.141 14.375 26.1444 14.375 24.2017C14.375 22.2582 13.5202 21.2596 12.7648 20.3791C12.0863 19.587 11.5 18.9031 11.5 17.4915C11.5 16.0798 12.0856 15.3959 12.7648 14.6038C13.5195 13.7234 14.375 12.7247 14.375 10.7812C14.375 10.3838 14.0537 10.0625 13.6562 10.0625ZM20.8438 10.0625C20.4463 10.0625 20.125 10.3838 20.125 10.7812C20.125 12.1929 19.5394 12.8768 18.8602 13.6689C18.1055 14.5494 17.25 15.548 17.25 17.4915C17.25 19.4342 18.1055 20.4322 18.8602 21.3126C19.5387 22.1047 20.125 22.79 20.125 24.2017C20.125 25.6126 19.5387 26.2951 18.8602 27.0865C18.1048 27.967 17.25 28.9642 17.25 30.9062C17.25 31.3037 17.5713 31.625 17.9688 31.625C18.3662 31.625 18.6875 31.3037 18.6875 30.9062C18.6875 29.4961 19.2738 28.8128 19.9523 28.0214C20.7077 27.141 21.5625 26.1444 21.5625 24.2017C21.5625 22.2582 20.7077 21.2596 19.9523 20.3791C19.2738 19.587 18.6875 18.9031 18.6875 17.4915C18.6875 16.0798 19.2731 15.3959 19.9523 14.6038C20.707 13.7234 21.5625 12.7247 21.5625 10.7812C21.5625 10.3838 21.2412 10.0625 20.8438 10.0625ZM28.0312 10.0625C27.6338 10.0625 27.3125 10.3838 27.3125 10.7812C27.3125 12.1929 26.7269 12.8768 26.0477 13.6689C25.293 14.5494 24.4375 15.548 24.4375 17.4915C24.4375 19.4342 25.293 20.4322 26.0477 21.3126C26.7262 22.1047 27.3125 22.79 27.3125 24.2017C27.3125 25.6126 26.7262 26.2951 26.0477 27.0865C25.2923 27.967 24.4375 28.9642 24.4375 30.9062C24.4375 31.3037 24.7588 31.625 25.1562 31.625C25.5537 31.625 25.875 31.3037 25.875 30.9062C25.875 29.4961 26.4613 28.8128 27.1398 28.0214C27.8952 27.141 28.75 26.1444 28.75 24.2017C28.75 22.2582 27.8952 21.2596 27.1398 20.3791C26.4613 19.587 25.875 18.9031 25.875 17.4915C25.875 16.0798 26.4606 15.3959 27.1398 14.6038C27.8945 13.7234 28.75 12.7247 28.75 10.7812C28.75 10.3838 28.4287 10.0625 28.0312 10.0625ZM35.2188 10.0625C34.8213 10.0625 34.5 10.3838 34.5 10.7812C34.5 12.1929 33.9144 12.8768 33.2352 13.6689C32.4805 14.5494 31.625 15.548 31.625 17.4915C31.625 19.4342 32.4805 20.4322 33.2352 21.3126C33.9137 22.1047 34.5 22.79 34.5 24.2017C34.5 25.6126 33.9137 26.2951 33.2352 27.0865C32.4798 27.967 31.625 28.9642 31.625 30.9062C31.625 31.3037 31.9463 31.625 32.3438 31.625C32.7412 31.625 33.0625 31.3037 33.0625 30.9062C33.0625 29.4961 33.6488 28.8128 34.3273 28.0214C35.0827 27.141 35.9375 26.1444 35.9375 24.2017C35.9375 22.2582 35.0827 21.2596 34.3273 20.3791C33.6488 19.587 33.0625 18.9031 33.0625 17.4915C33.0625 16.0798 33.6481 15.3959 34.3273 14.6038C35.082 13.7234 35.9375 12.7247 35.9375 10.7812C35.9375 10.3838 35.6162 10.0625 35.2188 10.0625ZM8.625 34.5C8.22753 34.5 7.90625 34.8213 7.90625 35.2188V36.6562C7.90625 37.0537 8.22753 37.375 8.625 37.375C9.02247 37.375 9.34375 37.0537 9.34375 36.6562V35.2188C9.34375 34.8213 9.02247 34.5 8.625 34.5ZM12.2188 34.5C11.8213 34.5 11.5 34.8213 11.5 35.2188V36.6562C11.5 37.0537 11.8213 37.375 12.2188 37.375C12.6162 37.375 12.9375 37.0537 12.9375 36.6562V35.2188C12.9375 34.8213 12.6162 34.5 12.2188 34.5ZM15.8125 34.5C15.415 34.5 15.0938 34.8213 15.0938 35.2188V36.6562C15.0938 37.0537 15.415 37.375 15.8125 37.375C16.21 37.375 16.5312 37.0537 16.5312 36.6562V35.2188C16.5312 34.8213 16.21 34.5 15.8125 34.5ZM19.4062 34.5C19.0088 34.5 18.6875 34.8213 18.6875 35.2188V36.6562C18.6875 37.0537 19.0088 37.375 19.4062 37.375C19.8037 37.375 20.125 37.0537 20.125 36.6562V35.2188C20.125 34.8213 19.8037 34.5 19.4062 34.5ZM23 34.5C22.6025 34.5 22.2812 34.8213 22.2812 35.2188V36.6562C22.2812 37.0537 22.6025 37.375 23 37.375C23.3975 37.375 23.7188 37.0537 23.7188 36.6562V35.2188C23.7188 34.8213 23.3975 34.5 23 34.5ZM26.5938 34.5C26.1963 34.5 25.875 34.8213 25.875 35.2188V36.6562C25.875 37.0537 26.1963 37.375 26.5938 37.375C26.9912 37.375 27.3125 37.0537 27.3125 36.6562V35.2188C27.3125 34.8213 26.9912 34.5 26.5938 34.5ZM30.1875 34.5C29.79 34.5 29.4688 34.8213 29.4688 35.2188V36.6562C29.4688 37.0537 29.79 37.375 30.1875 37.375C30.585 37.375 30.9062 37.0537 30.9062 36.6562V35.2188C30.9062 34.8213 30.585 34.5 30.1875 34.5ZM33.7812 34.5C33.3838 34.5 33.0625 34.8213 33.0625 35.2188V36.6562C33.0625 37.0537 33.3838 37.375 33.7812 37.375C34.1787 37.375 34.5 37.0537 34.5 36.6562V35.2188C34.5 34.8213 34.1787 34.5 33.7812 34.5ZM37.375 34.5C36.9775 34.5 36.6562 34.8213 36.6562 35.2188V36.6562C36.6562 37.0537 36.9775 37.375 37.375 37.375C37.7725 37.375 38.0938 37.0537 38.0938 36.6562V35.2188C38.0938 34.8213 37.7725 34.5 37.375 34.5Z" fill="white"/>
</svg>
